<svg id="Capa_1" enable-background="new 0 0 512 512" height="512" viewBox="0 0 512 512" width="512" xmlns="http://www.w3.org/2000/svg"><g><path d="m497.086 222.938c1.525.861 3.22 1.291 4.914 1.291 1.743 0 3.486-.456 5.043-1.365 3.07-1.793 4.957-5.081 4.957-8.635v-54.058c0-3.608-1.944-6.937-5.086-8.71l-246-138.79c-3.05-1.721-6.777-1.721-9.827 0l-246 138.79c-3.143 1.773-5.087 5.102-5.087 8.71v54.058c0 3.555 1.887 6.843 4.957 8.635 3.07 1.793 6.861 1.822 9.957.074l32.168-18.149v228.748h-37.082c-5.523 0-10 4.477-10 10v47.081c0 5.523 4.477 10 10 10h201c5.523 0 10-4.477 10-10s-4.477-10-10-10h-191v-27.081h472v27.081h-191c-5.523 0-10 4.477-10 10s4.477 10 10 10h201c5.523 0 10-4.477 10-10v-47.081c0-5.523-4.477-10-10-10h-37.082v-228.748zm-477.086-56.927 236-133.148 236 133.147v31.094l-231.086-130.375c-1.525-.86-3.219-1.29-4.914-1.29s-3.389.43-4.914 1.29l-231.086 130.376zm424.918 267.527h-377.837v-240.032l188.919-106.585 188.918 106.585z"/><circle cx="256" cy="490.618" r="10"/><path d="m157.211 238.717c-3.905 3.905-3.906 10.237-.001 14.142 3.907 3.906 10.238 3.905 14.142.001 22.648-22.647 52.709-35.119 84.648-35.119s62 12.472 84.647 35.118c1.953 1.953 4.512 2.929 7.071 2.929s5.119-.977 7.071-2.929c3.905-3.905 3.905-10.237 0-14.142-26.424-26.423-61.508-40.976-98.789-40.976s-72.365 14.552-98.789 40.976z"/><path d="m256 249.647c-23.448 0-45.505 9.152-62.107 25.771-3.904 3.907-3.9 10.239.006 14.142 3.907 3.903 10.238 3.9 14.142-.006 12.825-12.837 29.857-19.906 47.959-19.906s35.134 7.069 47.959 19.906c1.953 1.955 4.513 2.932 7.074 2.932 2.557 0 5.116-.975 7.068-2.926 3.907-3.903 3.91-10.235.006-14.142-16.602-16.618-38.659-25.771-62.107-25.771z"/><path d="m256 301.556c-19.825 0-35.953 16.128-35.953 35.953s16.128 35.953 35.953 35.953 35.953-16.128 35.953-35.953-16.128-35.953-35.953-35.953zm0 51.906c-8.796 0-15.953-7.157-15.953-15.953s7.157-15.953 15.953-15.953 15.953 7.157 15.953 15.953-7.157 15.953-15.953 15.953z"/></g></svg>